<mxfile host="app.diagrams.net" modified="2021-06-23T06:06:15.912Z" agent="5.0 (Windows NT 10.0; Win64; x64) AppleWebKit/537.36 (KHTML, like Gecko) Chrome/89.0.4389.90 Safari/537.36" etag="nOWgxKfmhXpAp7_yL-ZS" version="14.8.0" type="github">
  <diagram id="C5RBs43oDa-KdzZeNtuy" name="Page-1">
    <mxGraphModel dx="866" dy="490" grid="1" gridSize="10" guides="1" tooltips="1" connect="1" arrows="1" fold="1" page="1" pageScale="1" pageWidth="827" pageHeight="1169" math="0" shadow="0">
      <root>
        <mxCell id="WIyWlLk6GJQsqaUBKTNV-0" />
        <mxCell id="WIyWlLk6GJQsqaUBKTNV-1" parent="WIyWlLk6GJQsqaUBKTNV-0" />
        <mxCell id="WIyWlLk6GJQsqaUBKTNV-2" value="" style="rounded=0;html=1;jettySize=auto;orthogonalLoop=1;fontSize=11;endArrow=block;endFill=0;endSize=8;strokeWidth=1;shadow=0;labelBackgroundColor=none;edgeStyle=orthogonalEdgeStyle;" parent="WIyWlLk6GJQsqaUBKTNV-1" source="WIyWlLk6GJQsqaUBKTNV-3" target="WIyWlLk6GJQsqaUBKTNV-6" edge="1">
          <mxGeometry relative="1" as="geometry" />
        </mxCell>
        <mxCell id="WIyWlLk6GJQsqaUBKTNV-3" value="api" style="rounded=1;whiteSpace=wrap;html=1;fontSize=12;glass=0;strokeWidth=1;shadow=0;" parent="WIyWlLk6GJQsqaUBKTNV-1" vertex="1">
          <mxGeometry x="160" y="80" width="120" height="40" as="geometry" />
        </mxCell>
        <mxCell id="WIyWlLk6GJQsqaUBKTNV-4" value="Yes" style="rounded=0;html=1;jettySize=auto;orthogonalLoop=1;fontSize=11;endArrow=block;endFill=0;endSize=8;strokeWidth=1;shadow=0;labelBackgroundColor=none;edgeStyle=orthogonalEdgeStyle;" parent="WIyWlLk6GJQsqaUBKTNV-1" source="WIyWlLk6GJQsqaUBKTNV-6" target="WIyWlLk6GJQsqaUBKTNV-10" edge="1">
          <mxGeometry y="20" relative="1" as="geometry">
            <mxPoint as="offset" />
          </mxGeometry>
        </mxCell>
        <mxCell id="WIyWlLk6GJQsqaUBKTNV-6" value="api传来的内容是否为空？" style="rhombus;whiteSpace=wrap;html=1;shadow=0;fontFamily=Helvetica;fontSize=12;align=center;strokeWidth=1;spacing=6;spacingTop=-4;" parent="WIyWlLk6GJQsqaUBKTNV-1" vertex="1">
          <mxGeometry x="170" y="170" width="100" height="80" as="geometry" />
        </mxCell>
        <mxCell id="WIyWlLk6GJQsqaUBKTNV-8" value="No" style="rounded=0;html=1;jettySize=auto;orthogonalLoop=1;fontSize=11;endArrow=block;endFill=0;endSize=8;strokeWidth=1;shadow=0;labelBackgroundColor=none;edgeStyle=orthogonalEdgeStyle;" parent="WIyWlLk6GJQsqaUBKTNV-1" source="WIyWlLk6GJQsqaUBKTNV-10" target="WIyWlLk6GJQsqaUBKTNV-11" edge="1">
          <mxGeometry x="-1" y="86" relative="1" as="geometry">
            <mxPoint x="-16" y="-50" as="offset" />
          </mxGeometry>
        </mxCell>
        <mxCell id="WIyWlLk6GJQsqaUBKTNV-9" value="Yes" style="edgeStyle=orthogonalEdgeStyle;rounded=0;html=1;jettySize=auto;orthogonalLoop=1;fontSize=11;endArrow=block;endFill=0;endSize=8;strokeWidth=1;shadow=0;labelBackgroundColor=none;" parent="WIyWlLk6GJQsqaUBKTNV-1" source="WIyWlLk6GJQsqaUBKTNV-10" target="WIyWlLk6GJQsqaUBKTNV-12" edge="1">
          <mxGeometry x="-1" y="-67" relative="1" as="geometry">
            <mxPoint x="-30" y="-7" as="offset" />
          </mxGeometry>
        </mxCell>
        <mxCell id="WIyWlLk6GJQsqaUBKTNV-10" value="从aiqicha_test_pid文件中得到的pid是否为空？" style="rhombus;whiteSpace=wrap;html=1;shadow=0;fontFamily=Helvetica;fontSize=12;align=center;strokeWidth=1;spacing=6;spacingTop=-4;" parent="WIyWlLk6GJQsqaUBKTNV-1" vertex="1">
          <mxGeometry x="170" y="290" width="100" height="80" as="geometry" />
        </mxCell>
        <mxCell id="vZAxuXeCFAEA0jXyshni-42" style="edgeStyle=orthogonalEdgeStyle;rounded=0;orthogonalLoop=1;jettySize=auto;html=1;exitX=0.5;exitY=1;exitDx=0;exitDy=0;entryX=0.5;entryY=0;entryDx=0;entryDy=0;" edge="1" parent="WIyWlLk6GJQsqaUBKTNV-1" source="WIyWlLk6GJQsqaUBKTNV-11" target="vZAxuXeCFAEA0jXyshni-37">
          <mxGeometry relative="1" as="geometry" />
        </mxCell>
        <mxCell id="WIyWlLk6GJQsqaUBKTNV-11" value="网页搜索" style="rounded=1;whiteSpace=wrap;html=1;fontSize=12;glass=0;strokeWidth=1;shadow=0;" parent="WIyWlLk6GJQsqaUBKTNV-1" vertex="1">
          <mxGeometry x="160" y="430" width="120" height="40" as="geometry" />
        </mxCell>
        <mxCell id="WIyWlLk6GJQsqaUBKTNV-12" value="得到pid,更新表中状态-2，迭代根据pid爬取" style="rounded=1;whiteSpace=wrap;html=1;fontSize=12;glass=0;strokeWidth=1;shadow=0;" parent="WIyWlLk6GJQsqaUBKTNV-1" vertex="1">
          <mxGeometry x="320" y="310" width="120" height="40" as="geometry" />
        </mxCell>
        <mxCell id="vZAxuXeCFAEA0jXyshni-3" value="" style="group" vertex="1" connectable="0" parent="WIyWlLk6GJQsqaUBKTNV-1">
          <mxGeometry x="390" y="170" width="130" height="80" as="geometry" />
        </mxCell>
        <mxCell id="WIyWlLk6GJQsqaUBKTNV-5" value="No" style="edgeStyle=orthogonalEdgeStyle;rounded=0;html=1;jettySize=auto;orthogonalLoop=1;fontSize=11;endArrow=block;endFill=0;endSize=8;strokeWidth=1;shadow=0;labelBackgroundColor=none;" parent="vZAxuXeCFAEA0jXyshni-3" source="WIyWlLk6GJQsqaUBKTNV-6" edge="1">
          <mxGeometry y="10" relative="1" as="geometry">
            <mxPoint as="offset" />
            <mxPoint x="50" y="40" as="targetPoint" />
            <Array as="points">
              <mxPoint y="40" />
              <mxPoint y="40" />
            </Array>
          </mxGeometry>
        </mxCell>
        <mxCell id="vZAxuXeCFAEA0jXyshni-0" value="api能否获取pid" style="rhombus;whiteSpace=wrap;html=1;" vertex="1" parent="vZAxuXeCFAEA0jXyshni-3">
          <mxGeometry x="50" width="80" height="80" as="geometry" />
        </mxCell>
        <mxCell id="vZAxuXeCFAEA0jXyshni-6" value="No" style="text;whiteSpace=wrap;html=1;" vertex="1" parent="WIyWlLk6GJQsqaUBKTNV-1">
          <mxGeometry x="500" y="260" width="110" height="30" as="geometry" />
        </mxCell>
        <mxCell id="vZAxuXeCFAEA0jXyshni-12" value="" style="group" vertex="1" connectable="0" parent="WIyWlLk6GJQsqaUBKTNV-1">
          <mxGeometry x="530" y="190" width="190" height="40" as="geometry" />
        </mxCell>
        <mxCell id="vZAxuXeCFAEA0jXyshni-5" value="" style="endArrow=classic;html=1;exitX=1;exitY=0.5;exitDx=0;exitDy=0;" edge="1" parent="vZAxuXeCFAEA0jXyshni-12" source="vZAxuXeCFAEA0jXyshni-0">
          <mxGeometry width="50" height="50" relative="1" as="geometry">
            <mxPoint x="-220" y="70" as="sourcePoint" />
            <mxPoint x="70" y="20" as="targetPoint" />
            <Array as="points">
              <mxPoint y="20" />
            </Array>
          </mxGeometry>
        </mxCell>
        <mxCell id="vZAxuXeCFAEA0jXyshni-9" value="得到pid,更新表中状态-2，迭代根据pid爬取" style="rounded=1;whiteSpace=wrap;html=1;fontSize=12;glass=0;strokeWidth=1;shadow=0;" vertex="1" parent="vZAxuXeCFAEA0jXyshni-12">
          <mxGeometry x="70" width="120" height="40" as="geometry" />
        </mxCell>
        <mxCell id="vZAxuXeCFAEA0jXyshni-8" value="Yes" style="text;whiteSpace=wrap;html=1;" vertex="1" parent="vZAxuXeCFAEA0jXyshni-12">
          <mxGeometry x="10" width="110" height="30" as="geometry" />
        </mxCell>
        <mxCell id="vZAxuXeCFAEA0jXyshni-14" value="" style="group" vertex="1" connectable="0" parent="WIyWlLk6GJQsqaUBKTNV-1">
          <mxGeometry x="460" y="310" width="100" height="80" as="geometry" />
        </mxCell>
        <mxCell id="vZAxuXeCFAEA0jXyshni-16" value="" style="group" vertex="1" connectable="0" parent="vZAxuXeCFAEA0jXyshni-14">
          <mxGeometry x="-10" width="100" height="70" as="geometry" />
        </mxCell>
        <mxCell id="vZAxuXeCFAEA0jXyshni-4" value="" style="endArrow=classic;html=1;exitX=0.5;exitY=1;exitDx=0;exitDy=0;" edge="1" parent="vZAxuXeCFAEA0jXyshni-16" source="vZAxuXeCFAEA0jXyshni-0">
          <mxGeometry width="50" height="50" relative="1" as="geometry">
            <mxPoint x="40" y="20" as="sourcePoint" />
            <mxPoint x="50" as="targetPoint" />
          </mxGeometry>
        </mxCell>
        <mxCell id="vZAxuXeCFAEA0jXyshni-13" value="能否在aiqicha_test_pid表中获取pid?" style="rhombus;whiteSpace=wrap;html=1;" vertex="1" parent="vZAxuXeCFAEA0jXyshni-16">
          <mxGeometry width="100" height="70" as="geometry" />
        </mxCell>
        <mxCell id="vZAxuXeCFAEA0jXyshni-22" value="No" style="text;whiteSpace=wrap;html=1;" vertex="1" parent="WIyWlLk6GJQsqaUBKTNV-1">
          <mxGeometry x="500" y="390" width="110" height="30" as="geometry" />
        </mxCell>
        <mxCell id="vZAxuXeCFAEA0jXyshni-23" value="得到pid,更新表中状态-2，迭代根据pid爬取" style="rounded=1;whiteSpace=wrap;html=1;fontSize=12;glass=0;strokeWidth=1;shadow=0;" vertex="1" parent="WIyWlLk6GJQsqaUBKTNV-1">
          <mxGeometry x="650" y="325" width="120" height="40" as="geometry" />
        </mxCell>
        <mxCell id="vZAxuXeCFAEA0jXyshni-26" value="" style="group" vertex="1" connectable="0" parent="WIyWlLk6GJQsqaUBKTNV-1">
          <mxGeometry x="450" y="440" width="120" height="40" as="geometry" />
        </mxCell>
        <mxCell id="vZAxuXeCFAEA0jXyshni-24" value="网页搜索" style="rounded=1;whiteSpace=wrap;html=1;fontSize=12;glass=0;strokeWidth=1;shadow=0;" vertex="1" parent="vZAxuXeCFAEA0jXyshni-26">
          <mxGeometry width="120" height="40" as="geometry" />
        </mxCell>
        <mxCell id="vZAxuXeCFAEA0jXyshni-25" style="edgeStyle=orthogonalEdgeStyle;rounded=0;orthogonalLoop=1;jettySize=auto;html=1;exitX=0.5;exitY=1;exitDx=0;exitDy=0;entryX=0.417;entryY=0;entryDx=0;entryDy=0;entryPerimeter=0;" edge="1" parent="vZAxuXeCFAEA0jXyshni-26" source="vZAxuXeCFAEA0jXyshni-13" target="vZAxuXeCFAEA0jXyshni-24">
          <mxGeometry relative="1" as="geometry" />
        </mxCell>
        <mxCell id="vZAxuXeCFAEA0jXyshni-27" style="edgeStyle=orthogonalEdgeStyle;rounded=0;orthogonalLoop=1;jettySize=auto;html=1;exitX=1;exitY=0.5;exitDx=0;exitDy=0;entryX=0;entryY=0.5;entryDx=0;entryDy=0;" edge="1" parent="WIyWlLk6GJQsqaUBKTNV-1" source="vZAxuXeCFAEA0jXyshni-13" target="vZAxuXeCFAEA0jXyshni-23">
          <mxGeometry relative="1" as="geometry" />
        </mxCell>
        <mxCell id="vZAxuXeCFAEA0jXyshni-38" value="" style="group" vertex="1" connectable="0" parent="WIyWlLk6GJQsqaUBKTNV-1">
          <mxGeometry x="110" y="500" width="220" height="70" as="geometry" />
        </mxCell>
        <mxCell id="vZAxuXeCFAEA0jXyshni-34" style="edgeStyle=orthogonalEdgeStyle;rounded=0;orthogonalLoop=1;jettySize=auto;html=1;exitX=1;exitY=0.5;exitDx=0;exitDy=0;" edge="1" parent="vZAxuXeCFAEA0jXyshni-38">
          <mxGeometry relative="1" as="geometry">
            <mxPoint x="220" y="30" as="targetPoint" />
            <mxPoint x="110" y="30" as="sourcePoint" />
          </mxGeometry>
        </mxCell>
        <mxCell id="vZAxuXeCFAEA0jXyshni-36" value="No" style="text;html=1;strokeColor=none;fillColor=none;align=center;verticalAlign=middle;whiteSpace=wrap;rounded=0;" vertex="1" parent="vZAxuXeCFAEA0jXyshni-38">
          <mxGeometry x="140" y="10" width="40" height="20" as="geometry" />
        </mxCell>
        <mxCell id="vZAxuXeCFAEA0jXyshni-37" value="&lt;span&gt;通过搜索是否获取了pid&lt;/span&gt;" style="rhombus;whiteSpace=wrap;html=1;" vertex="1" parent="vZAxuXeCFAEA0jXyshni-38">
          <mxGeometry x="10" width="110" height="70" as="geometry" />
        </mxCell>
        <mxCell id="vZAxuXeCFAEA0jXyshni-39" value="更新dtjk数据库状态为-1" style="rounded=1;whiteSpace=wrap;html=1;" vertex="1" parent="WIyWlLk6GJQsqaUBKTNV-1">
          <mxGeometry x="330" y="500" width="120" height="60" as="geometry" />
        </mxCell>
        <mxCell id="vZAxuXeCFAEA0jXyshni-40" style="edgeStyle=orthogonalEdgeStyle;rounded=0;orthogonalLoop=1;jettySize=auto;html=1;exitX=0.5;exitY=1;exitDx=0;exitDy=0;" edge="1" parent="WIyWlLk6GJQsqaUBKTNV-1" source="vZAxuXeCFAEA0jXyshni-37">
          <mxGeometry relative="1" as="geometry">
            <mxPoint x="175" y="620" as="targetPoint" />
            <Array as="points">
              <mxPoint x="175" y="620" />
            </Array>
          </mxGeometry>
        </mxCell>
        <mxCell id="vZAxuXeCFAEA0jXyshni-43" value="更新dtjk表pid值，插入或更新表aiqicha_test_pid数据，进行迭代爬取" style="rounded=1;whiteSpace=wrap;html=1;" vertex="1" parent="WIyWlLk6GJQsqaUBKTNV-1">
          <mxGeometry x="120" y="620" width="120" height="60" as="geometry" />
        </mxCell>
      </root>
    </mxGraphModel>
  </diagram>
</mxfile>
